<svg width="13" height="14" viewBox="0 0 13 14" fill="none" xmlns="http://www.w3.org/2000/svg">
<path d="M11.8125 0.875H8.53125L8.25781 0.382812C8.14844 0.164062 7.92969 0 7.68359 0H4.53906C4.29297 0 4.07422 0.164062 3.96484 0.382812L3.71875 0.875H0.4375C0.191406 0.875 0 1.09375 0 1.3125V2.1875C0 2.43359 0.191406 2.625 0.4375 2.625H11.8125C12.0312 2.625 12.25 2.43359 12.25 2.1875V1.3125C12.25 1.09375 12.0312 0.875 11.8125 0.875ZM1.44922 12.7695C1.47656 13.4805 2.05078 14 2.76172 14H9.46094C10.1719 14 10.7461 13.4805 10.7734 12.7695L11.375 3.5H0.875L1.44922 12.7695Z" fill="#ADB5BD"/>
</svg>
